<svg xmlns="http://www.w3.org/2000/svg" id="canvas" viewBox="291.140 368.004 960.294 131.783"><path d="M 294.63,372.20 C 293.97 373.64, 294.08 375.44, 294.36 379.08 C 294.64 382.71, 295.34 385.05, 296.04 390.38 C 296.75 395.71, 297.22 399.39, 297.88 405.72 C 298.53 412.06, 298.91 415.57, 299.33 422.04 C 299.75 428.51, 299.88 432.05, 299.98 438.06 C 300.08 444.08, 300.08 447.25, 299.84 452.09 C 299.59 456.94, 298.83 459.15, 298.73 462.29 C 298.63 465.44, 298.70 466.61, 299.33 467.81 C 299.95 469.01, 300.81 469.11, 301.85 468.31 C 302.88 467.51, 303.92 466.44, 304.51 463.82 C 305.11 461.20, 304.32 459.04, 304.83 455.20 C 305.35 451.36, 305.67 448.78, 307.08 444.63 C 308.49 440.48, 309.68 438.08, 311.90 434.45 C 314.12 430.82, 315.60 428.98, 318.17 426.48 C 320.73 423.98, 322.19 423.07, 324.72 421.94 C 327.25 420.82, 328.54 420.75, 330.83 420.85 C 333.12 420.94, 334.12 421.30, 336.17 422.43 C 338.22 423.56, 339.24 424.33, 341.08 426.51 C 342.91 428.69, 343.93 430.15, 345.36 433.31 C 346.79 436.48, 347.40 438.57, 348.24 442.33 C 349.08 446.10, 349.23 448.30, 349.55 452.13 C 349.86 455.97, 349.67 458.15, 349.82 461.51 C 349.96 464.86, 349.82 466.62, 350.26 468.91 C 350.69 471.20, 351.32 471.82, 351.99 472.96 C 352.67 474.09, 353.02 474.34, 353.64 474.58 C 354.26 474.82, 354.66 474.61, 355.08 474.17 C 355.51 473.72, 355.42 473.53, 355.75 472.37 C 356.07 471.22, 356.61 470.66, 356.69 468.41 C 356.76 466.15, 356.43 464.46, 356.13 461.09 C 355.83 457.72, 355.66 455.55, 355.18 451.56 C 354.70 447.57, 354.62 445.26, 353.74 441.14 C 352.87 437.02, 352.36 434.68, 350.80 430.95 C 349.25 427.22, 348.26 425.34, 345.95 422.49 C 343.64 419.64, 342.25 418.27, 339.24 416.70 C 336.23 415.13, 334.29 414.61, 330.90 414.63 C 327.51 414.66, 325.57 415.20, 322.29 416.83 C 319.01 418.47, 317.44 419.82, 314.50 422.81 C 311.57 425.80, 310.13 427.83, 307.63 431.80 C 305.13 435.76, 303.92 438.26, 302.01 442.66 C 300.09 447.06, 299.21 449.68, 298.07 453.79 C 296.92 457.91, 296.08 460.27, 296.28 463.24 C 296.48 466.20, 297.85 467.59, 299.08 468.61 C 300.32 469.63, 301.41 469.54, 302.45 468.35 C 303.49 467.16, 303.97 465.89, 304.28 462.65 C 304.59 459.41, 304.13 457.08, 303.99 452.14 C 303.85 447.20, 303.79 444.03, 303.56 437.97 C 303.34 431.91, 303.22 428.35, 302.86 421.83 C 302.51 415.31, 302.24 411.77, 301.79 405.38 C 301.33 398.99, 301.05 395.26, 300.58 389.88 C 300.12 384.50, 300.05 382.07, 299.46 378.47 C 298.87 374.86, 298.60 373.11, 297.64 371.85 C 296.67 370.60, 295.29 370.75, 294.63 372.20" style="stroke: black; fill: black;"/><path d="M 377.14,425.99 C 376.41 427.06, 376.31 428.20, 376.38 430.57 C 376.45 432.94, 376.92 434.57, 377.48 437.84 C 378.04 441.11, 378.63 443.33, 379.16 446.92 C 379.69 450.51, 379.81 452.59, 380.12 455.79 C 380.43 458.99, 380.32 460.69, 380.70 462.92 C 381.09 465.16, 381.43 465.86, 382.06 466.97 C 382.69 468.09, 383.28 468.23, 383.85 468.49 C 384.43 468.74, 384.79 468.37, 384.95 468.26 C 385.11 468.15, 384.56 467.99, 384.65 467.94 C 384.75 467.90, 385.00 468.32, 385.42 468.02 C 385.84 467.73, 386.34 467.59, 386.73 466.48 C 387.13 465.36, 387.32 464.71, 387.39 462.45 C 387.46 460.19, 387.35 458.46, 387.08 455.17 C 386.81 451.88, 386.47 449.73, 386.02 446.01 C 385.58 442.29, 385.45 439.97, 384.86 436.58 C 384.28 433.19, 384.07 431.34, 383.11 429.07 C 382.14 426.79, 381.22 425.81, 380.03 425.19 C 378.83 424.58, 377.87 424.91, 377.14 425.99" style="stroke: black; fill: black;"/><path d="M 376.67,386.50 C 376.78 385.36, 376.58 384.51, 375.79 384.31 C 375.01 384.12, 373.39 384.79, 372.76 385.52 C 372.13 386.25, 372.04 387.21, 372.64 387.97 C 373.25 388.73, 375.09 388.81, 375.80 389.32 C 376.52 389.83, 376.44 390.07, 376.22 390.52 C 375.99 390.98, 374.86 391.70, 374.66 391.59 C 374.46 391.49, 374.83 391.02, 375.23 390.00 C 375.63 388.98, 376.56 387.64, 376.67 386.50" style="stroke: black; fill: black;"/><path d="M 434.28,453.18 C 433.19 453.88, 432.55 454.80, 431.74 457.09 C 430.94 459.39, 430.81 461.20, 430.24 464.67 C 429.67 468.14, 429.42 470.56, 428.87 474.45 C 428.32 478.35, 427.82 480.71, 427.49 484.16 C 427.16 487.60, 426.96 489.28, 427.24 491.68 C 427.53 494.08, 428.15 495.27, 428.94 496.16 C 429.72 497.05, 430.41 496.95, 431.18 496.13 C 431.94 495.30, 432.17 494.26, 432.76 492.03 C 433.35 489.81, 433.58 488.32, 434.12 485.01 C 434.67 481.70, 434.83 479.31, 435.48 475.48 C 436.13 471.66, 436.78 469.35, 437.39 465.88 C 437.99 462.42, 438.54 460.64, 438.50 458.18 C 438.46 455.72, 438.02 454.59, 437.18 453.59 C 436.33 452.59, 435.36 452.48, 434.28 453.18" style="stroke: black; fill: black;"/><path d="M 489.49,389.73 C 488.43 390.20, 487.46 390.72, 486.71 392.88 C 485.96 395.04, 485.88 396.61, 485.74 400.54 C 485.59 404.48, 485.76 407.23, 485.99 412.56 C 486.22 417.90, 486.51 421.32, 486.87 427.22 C 487.23 433.12, 487.47 436.29, 487.80 442.05 C 488.12 447.81, 488.24 450.98, 488.47 456.01 C 488.71 461.04, 488.64 463.59, 488.96 467.19 C 489.28 470.79, 489.51 472.01, 490.08 474.01 C 490.66 476.00, 491.15 476.59, 491.84 477.17 C 492.54 477.75, 493.06 477.64, 493.56 476.91 C 494.06 476.18, 494.22 475.56, 494.33 473.52 C 494.45 471.49, 494.46 470.29, 494.14 466.72 C 493.81 463.16, 493.19 460.69, 492.70 455.71 C 492.22 450.73, 492.05 447.56, 491.71 441.83 C 491.38 436.09, 491.17 432.89, 491.02 427.04 C 490.88 421.19, 490.77 417.78, 490.99 412.56 C 491.21 407.34, 491.77 404.68, 492.12 400.96 C 492.48 397.23, 492.77 396.02, 492.76 393.93 C 492.74 391.85, 492.71 391.39, 492.05 390.55 C 491.40 389.71, 490.56 389.27, 489.49 389.73" style="stroke: black; fill: black;"/><path d="M 539.19,401.24 C 538.16 401.16, 537.12 401.04, 535.84 402.52 C 534.55 404.00, 533.72 405.20, 532.75 408.64 C 531.78 412.09, 531.67 414.64, 531.00 419.73 C 530.33 424.82, 529.95 428.19, 529.40 434.09 C 528.85 439.99, 528.65 443.45, 528.26 449.22 C 527.88 455.00, 527.78 458.08, 527.48 462.95 C 527.18 467.82, 526.96 469.99, 526.77 473.57 C 526.58 477.16, 526.39 478.74, 526.53 480.88 C 526.67 483.03, 527.18 483.35, 527.46 484.30 C 527.75 485.24, 527.63 485.27, 527.96 485.62 C 528.30 485.98, 528.61 486.24, 529.15 486.07 C 529.68 485.90, 530.05 485.78, 530.63 484.78 C 531.22 483.77, 531.81 483.26, 532.07 481.04 C 532.33 478.82, 532.01 477.25, 531.95 473.66 C 531.88 470.08, 531.67 467.95, 531.74 463.11 C 531.81 458.28, 531.90 455.20, 532.29 449.50 C 532.68 443.79, 532.91 440.34, 533.70 434.58 C 534.48 428.83, 535.04 425.50, 536.23 420.72 C 537.42 415.93, 538.70 413.77, 539.65 410.66 C 540.60 407.54, 540.71 406.68, 540.97 405.14 C 541.22 403.59, 541.30 403.70, 540.95 402.92 C 540.59 402.14, 540.21 401.32, 539.19 401.24" style="stroke: black; fill: black;"/><path d="M 515.54,445.89 C 516.74 446.30, 517.79 446.12, 520.01 445.42 C 522.23 444.72, 523.51 443.70, 526.65 442.38 C 529.79 441.07, 531.88 440.01, 535.72 438.85 C 539.57 437.69, 541.95 437.26, 545.88 436.59 C 549.80 435.92, 551.99 435.97, 555.33 435.51 C 558.68 435.05, 561.15 435.12, 562.60 434.28 C 564.06 433.44, 564.12 432.16, 562.61 431.31 C 561.09 430.47, 558.54 430.12, 555.02 430.05 C 551.50 429.98, 549.18 430.39, 545.01 430.96 C 540.84 431.54, 538.34 431.96, 534.15 432.94 C 529.96 433.92, 527.51 434.55, 524.06 435.85 C 520.61 437.16, 518.90 437.95, 516.90 439.45 C 514.90 440.96, 514.30 442.08, 514.03 443.37 C 513.76 444.66, 514.35 445.48, 515.54 445.89" style="stroke: black; fill: black;"/><path d="M 586.59,431.88 C 585.78 432.73, 585.70 433.59, 585.42 435.48 C 585.15 437.37, 585.07 438.69, 585.22 441.33 C 585.36 443.97, 585.85 445.78, 586.12 448.68 C 586.40 451.58, 586.16 453.39, 586.58 455.83 C 587.00 458.28, 587.35 459.48, 588.23 460.90 C 589.11 462.32, 589.65 462.82, 590.98 462.94 C 592.32 463.06, 593.50 462.90, 594.91 461.50 C 596.33 460.10, 596.99 458.68, 598.06 455.93 C 599.12 453.18, 599.10 451.03, 600.24 447.76 C 601.38 444.49, 602.24 442.48, 603.74 439.58 C 605.24 436.69, 606.31 435.31, 607.72 433.26 C 609.14 431.22, 609.66 430.37, 610.81 429.36 C 611.97 428.36, 612.50 428.20, 613.50 428.26 C 614.50 428.32, 614.86 428.61, 615.79 429.65 C 616.72 430.68, 617.18 431.64, 618.15 433.44 C 619.13 435.24, 619.73 436.45, 620.67 438.65 C 621.61 440.85, 621.94 442.25, 622.84 444.43 C 623.75 446.62, 624.05 447.97, 625.18 449.56 C 626.31 451.16, 626.99 451.73, 628.50 452.41 C 630.01 453.08, 630.94 453.35, 632.74 452.95 C 634.53 452.56, 635.73 452.08, 637.48 450.43 C 639.23 448.78, 639.80 447.22, 641.50 444.70 C 643.20 442.18, 643.94 440.27, 645.97 437.81 C 648.00 435.35, 649.38 434.09, 651.65 432.39 C 653.92 430.70, 655.22 430.11, 657.32 429.33 C 659.42 428.55, 660.37 428.33, 662.14 428.49 C 663.91 428.65, 664.66 429.08, 666.17 430.13 C 667.68 431.17, 668.41 432.00, 669.70 433.71 C 670.98 435.43, 671.58 436.50, 672.60 438.70 C 673.62 440.90, 673.96 442.27, 674.81 444.72 C 675.65 447.16, 676.06 448.67, 676.80 450.94 C 677.54 453.21, 677.84 454.42, 678.51 456.05 C 679.17 457.69, 679.45 458.23, 680.13 459.13 C 680.81 460.03, 681.31 460.25, 681.92 460.53 C 682.53 460.81, 682.84 460.69, 683.20 460.54 C 683.56 460.39, 683.51 460.04, 683.73 459.80 C 683.95 459.55, 684.05 459.72, 684.31 459.31 C 684.57 458.90, 684.87 458.71, 685.03 457.75 C 685.19 456.79, 685.24 456.29, 685.11 454.52 C 684.98 452.74, 684.94 451.34, 684.38 448.86 C 683.82 446.38, 683.26 444.82, 682.29 442.10 C 681.33 439.38, 680.92 437.88, 679.55 435.25 C 678.17 432.61, 677.38 431.12, 675.40 428.93 C 673.41 426.75, 672.14 425.68, 669.62 424.32 C 667.09 422.97, 665.65 422.46, 662.76 422.16 C 659.87 421.87, 658.18 421.92, 655.16 422.84 C 652.13 423.77, 650.56 424.80, 647.65 426.80 C 644.75 428.80, 643.27 430.30, 640.64 432.86 C 638.01 435.41, 636.49 437.07, 634.50 439.57 C 632.52 442.07, 631.63 443.46, 630.72 445.36 C 629.81 447.26, 629.94 448.20, 629.96 449.08 C 629.99 449.95, 630.52 450.10, 630.83 449.73 C 631.14 449.36, 631.55 448.81, 631.51 447.23 C 631.48 445.65, 631.26 444.23, 630.64 441.84 C 630.02 439.45, 629.57 437.86, 628.41 435.27 C 627.26 432.68, 626.63 431.09, 624.88 428.88 C 623.12 426.66, 621.92 425.41, 619.65 424.19 C 617.38 422.96, 615.94 422.70, 613.52 422.75 C 611.11 422.79, 609.87 423.16, 607.58 424.40 C 605.29 425.64, 604.03 426.56, 602.07 428.95 C 600.10 431.35, 599.48 433.21, 597.74 436.38 C 595.99 439.54, 595.00 441.51, 593.33 444.80 C 591.65 448.09, 590.31 449.96, 589.37 452.84 C 588.43 455.73, 588.41 457.37, 588.64 459.24 C 588.88 461.10, 589.59 461.84, 590.55 462.18 C 591.51 462.51, 592.58 462.22, 593.46 460.90 C 594.34 459.59, 594.65 458.18, 594.94 455.62 C 595.23 453.05, 595.04 451.18, 594.91 448.08 C 594.77 444.99, 594.83 442.93, 594.27 440.15 C 593.71 437.38, 593.07 436.02, 592.11 434.23 C 591.15 432.45, 590.58 431.71, 589.47 431.24 C 588.37 430.77, 587.40 431.03, 586.59 431.88" style="stroke: black; fill: black;"/><path d="M 808.77,422.51 C 807.87 423.23, 807.54 423.89, 807.04 425.98 C 806.55 428.07, 806.38 429.63, 806.31 432.95 C 806.23 436.27, 806.54 438.76, 806.67 442.58 C 806.79 446.39, 806.61 448.62, 806.92 452.01 C 807.24 455.41, 807.40 457.30, 808.23 459.56 C 809.05 461.82, 810.06 462.42, 811.05 463.32 C 812.04 464.23, 812.56 464.10, 813.18 464.08 C 813.80 464.06, 813.91 463.66, 814.14 463.20 C 814.36 462.75, 814.19 462.80, 814.29 461.81 C 814.39 460.81, 814.71 460.30, 814.64 458.24 C 814.57 456.17, 814.13 454.64, 813.96 451.49 C 813.78 448.35, 813.73 446.21, 813.78 442.51 C 813.84 438.82, 814.25 436.34, 814.23 433.02 C 814.20 429.70, 814.21 428.04, 813.68 425.91 C 813.14 423.78, 812.53 423.03, 811.55 422.35 C 810.57 421.67, 809.67 421.78, 808.77 422.51" style="stroke: black; fill: black;"/><path d="M 804.79,390.44 C 805.61 390.61, 805.74 390.91, 805.42 391.43 C 805.11 391.95, 804.09 392.36, 803.24 393.03 C 802.38 393.71, 801.15 394.77, 801.14 394.82 C 801.12 394.86, 802.05 394.47, 803.17 393.25 C 804.28 392.02, 805.98 390.20, 806.72 388.68 C 807.47 387.16, 807.54 386.01, 806.88 385.66 C 806.23 385.30, 804.70 386.23, 803.46 386.89 C 802.22 387.56, 801.10 388.23, 800.68 388.97 C 800.25 389.71, 800.52 390.29, 801.34 390.58 C 802.16 390.87, 803.97 390.27, 804.79 390.44" style="stroke: black; fill: black;"/><path d="M 838.63,421.00 C 837.71 421.72, 837.41 422.56, 836.96 424.46 C 836.51 426.36, 836.26 427.71, 836.38 430.51 C 836.51 433.31, 837.19 435.20, 837.58 438.46 C 837.98 441.73, 837.94 443.83, 838.35 446.84 C 838.76 449.84, 838.79 451.43, 839.64 453.48 C 840.48 455.52, 841.17 456.35, 842.59 457.04 C 844.01 457.73, 845.12 457.78, 846.72 456.91 C 848.31 456.05, 849.36 455.14, 850.56 452.71 C 851.76 450.27, 851.52 448.15, 852.71 444.74 C 853.90 441.32, 854.61 439.02, 856.51 435.62 C 858.40 432.22, 859.65 430.39, 862.17 427.74 C 864.69 425.08, 866.35 423.86, 869.09 422.36 C 871.84 420.85, 873.40 420.51, 875.88 420.23 C 878.35 419.95, 879.44 420.22, 881.48 420.96 C 883.51 421.70, 884.40 422.30, 886.05 423.92 C 887.70 425.55, 888.48 426.62, 889.74 429.08 C 891.00 431.53, 891.54 433.27, 892.34 436.21 C 893.15 439.16, 893.33 440.89, 893.75 443.81 C 894.18 446.72, 894.00 448.36, 894.46 450.77 C 894.92 453.17, 895.37 454.29, 896.05 455.84 C 896.73 457.38, 897.10 458.00, 897.87 458.49 C 898.65 458.98, 899.27 458.90, 899.92 458.27 C 900.57 457.63, 900.78 456.97, 901.14 455.32 C 901.49 453.67, 901.77 452.53, 901.71 450.00 C 901.65 447.47, 901.38 445.79, 900.82 442.66 C 900.26 439.52, 899.92 437.68, 898.93 434.33 C 897.93 430.98, 897.47 428.98, 895.83 425.89 C 894.19 422.81, 893.19 421.11, 890.72 418.90 C 888.25 416.69, 886.62 415.80, 883.49 414.84 C 880.36 413.88, 878.51 413.59, 875.06 414.10 C 871.62 414.60, 869.66 415.42, 866.28 417.38 C 862.90 419.33, 861.15 420.86, 858.18 423.88 C 855.21 426.90, 853.89 428.90, 851.44 432.48 C 849.00 436.05, 847.79 438.32, 845.96 441.77 C 844.13 445.21, 842.91 447.10, 842.28 449.71 C 841.66 452.33, 842.34 453.64, 842.83 454.83 C 843.33 456.02, 844.05 456.11, 844.74 455.66 C 845.43 455.22, 845.95 454.50, 846.28 452.59 C 846.60 450.68, 846.48 449.08, 846.35 446.11 C 846.22 443.14, 845.82 441.01, 845.62 437.72 C 845.41 434.44, 845.71 432.43, 845.31 429.66 C 844.91 426.90, 844.35 425.68, 843.60 423.91 C 842.85 422.15, 842.55 421.42, 841.56 420.83 C 840.56 420.25, 839.55 420.28, 838.63 421.00" style="stroke: black; fill: black;"/><path d="M 925.71,425.06 C 924.91 425.78, 924.80 426.35, 924.43 428.05 C 924.06 429.76, 923.78 430.98, 923.88 433.58 C 923.97 436.17, 924.43 438.06, 924.93 441.03 C 925.42 444.00, 925.68 445.82, 926.35 448.41 C 927.03 451.00, 927.46 452.29, 928.31 453.99 C 929.15 455.69, 929.78 456.17, 930.59 456.91 C 931.40 457.64, 931.76 457.66, 932.35 457.68 C 932.93 457.70, 933.17 457.40, 933.51 457.00 C 933.86 456.60, 933.82 456.57, 934.06 455.69 C 934.30 454.80, 934.61 454.31, 934.70 452.59 C 934.80 450.86, 934.70 449.61, 934.53 447.06 C 934.36 444.52, 934.14 442.79, 933.85 439.85 C 933.57 436.91, 933.68 434.96, 933.11 432.37 C 932.53 429.79, 931.91 428.52, 930.98 426.94 C 930.05 425.35, 929.51 424.82, 928.46 424.44 C 927.40 424.06, 926.52 424.33, 925.71 425.06" style="stroke: black; fill: black;"/><path d="M 924.42,389.65 C 925.41 389.08, 925.81 388.38, 925.61 388.01 C 925.40 387.63, 924.44 387.57, 923.39 387.77 C 922.34 387.97, 921.28 388.47, 920.37 389.00 C 919.45 389.52, 918.76 390.04, 918.82 390.41 C 918.88 390.77, 919.53 390.97, 920.65 390.82 C 921.77 390.67, 923.43 390.21, 924.42 389.65" style="stroke: black; fill: black;"/><path d="M 973.79,380.20 C 972.95 381.03, 972.52 381.78, 972.35 384.06 C 972.17 386.35, 972.47 387.92, 972.92 391.61 C 973.37 395.30, 974.01 397.74, 974.61 402.51 C 975.20 407.27, 975.46 410.20, 975.91 415.42 C 976.35 420.63, 976.50 423.53, 976.82 428.58 C 977.14 433.63, 977.32 436.28, 977.52 440.66 C 977.73 445.04, 977.65 447.18, 977.83 450.49 C 978.01 453.79, 977.99 455.16, 978.43 457.20 C 978.86 459.24, 979.44 459.77, 980.00 460.70 C 980.57 461.64, 980.76 461.67, 981.25 461.87 C 981.75 462.07, 982.07 462.01, 982.50 461.70 C 982.92 461.38, 983.06 461.29, 983.38 460.28 C 983.70 459.27, 984.08 458.70, 984.11 456.64 C 984.14 454.59, 983.92 453.28, 983.54 450.01 C 983.17 446.74, 982.73 444.65, 982.26 440.30 C 981.79 435.96, 981.57 433.32, 981.21 428.28 C 980.85 423.25, 980.72 420.36, 980.47 415.12 C 980.22 409.87, 980.13 406.89, 979.95 402.07 C 979.76 397.24, 979.78 394.72, 979.55 390.99 C 979.31 387.27, 979.36 385.67, 978.76 383.45 C 978.16 381.24, 977.53 380.56, 976.54 379.91 C 975.54 379.26, 974.63 379.37, 973.79 380.20" style="stroke: black; fill: black;"/><path d="M 960.60,432.27 C 961.50 432.84, 962.09 432.77, 963.92 432.63 C 965.74 432.49, 966.63 432.11, 969.73 431.55 C 972.83 430.98, 975.06 430.30, 979.42 429.80 C 983.77 429.30, 986.53 429.16, 991.51 429.03 C 996.49 428.90, 999.69 429.10, 1004.32 429.16 C 1008.96 429.21, 1011.29 429.48, 1014.69 429.32 C 1018.09 429.17, 1019.98 429.06, 1021.32 428.37 C 1022.67 427.69, 1022.73 426.70, 1021.43 425.91 C 1020.13 425.11, 1018.24 424.73, 1014.83 424.39 C 1011.42 424.05, 1009.06 424.25, 1004.39 424.19 C 999.72 424.12, 996.53 424.08, 991.46 424.05 C 986.40 424.01, 983.66 423.98, 979.06 424.02 C 974.47 424.06, 971.92 423.72, 968.49 424.27 C 965.06 424.82, 963.72 425.66, 961.91 426.75 C 960.10 427.85, 959.71 428.65, 959.45 429.76 C 959.19 430.86, 959.71 431.70, 960.60 432.27" style="stroke: black; fill: black;"/><path d="M 1058.96,420.51 C 1058.54 419.47, 1057.97 418.86, 1056.21 418.13 C 1054.45 417.40, 1053.10 416.62, 1050.17 416.87 C 1047.24 417.13, 1045.11 417.89, 1041.55 419.41 C 1037.99 420.92, 1035.89 422.15, 1032.38 424.45 C 1028.87 426.74, 1026.84 428.07, 1023.99 430.88 C 1021.14 433.70, 1019.42 435.31, 1018.12 438.52 C 1016.83 441.72, 1016.63 443.84, 1017.52 446.89 C 1018.42 449.95, 1019.67 451.63, 1022.60 453.79 C 1025.53 455.95, 1027.72 456.56, 1032.19 457.70 C 1036.65 458.83, 1039.51 459.06, 1044.92 459.46 C 1050.34 459.85, 1053.91 459.82, 1059.25 459.67 C 1064.60 459.53, 1067.50 459.29, 1071.64 458.74 C 1075.78 458.18, 1078.35 457.80, 1079.94 456.89 C 1081.54 455.99, 1081.37 454.73, 1079.63 454.22 C 1077.89 453.71, 1075.35 454.17, 1071.25 454.34 C 1067.16 454.51, 1064.34 454.99, 1059.15 455.07 C 1053.97 455.15, 1050.43 455.23, 1045.33 454.73 C 1040.22 454.23, 1037.46 453.74, 1033.61 452.57 C 1029.76 451.40, 1028.23 450.31, 1026.07 448.87 C 1023.90 447.44, 1023.20 446.92, 1022.76 445.37 C 1022.32 443.83, 1022.77 443.17, 1023.87 441.15 C 1024.97 439.12, 1025.90 437.53, 1028.25 435.26 C 1030.61 432.99, 1032.51 431.60, 1035.67 429.80 C 1038.82 428.00, 1040.91 427.14, 1044.02 426.26 C 1047.12 425.38, 1048.88 425.76, 1051.20 425.39 C 1053.52 425.01, 1054.18 424.79, 1055.60 424.37 C 1057.01 423.96, 1057.61 424.08, 1058.28 423.31 C 1058.95 422.54, 1059.37 421.55, 1058.96 420.51" style="stroke: black; fill: black;"/><path d="M 1122.17,431.48 C 1122.58 430.39, 1122.47 429.45, 1121.68 427.84 C 1120.89 426.22, 1120.25 424.31, 1118.24 423.42 C 1116.22 422.54, 1113.25 422.46, 1111.59 423.41 C 1109.92 424.35, 1109.45 426.46, 1109.91 428.15 C 1110.37 429.85, 1112.46 430.99, 1113.88 431.88 C 1115.30 432.76, 1115.88 432.31, 1117.03 432.59 C 1118.18 432.87, 1118.59 433.51, 1119.62 433.29 C 1120.65 433.07, 1121.76 432.57, 1122.17 431.48" style="stroke: black; fill: black;"/><path d="M 1094.18,436.57 C 1092.94 437.09, 1091.77 438.11, 1091.07 440.20 C 1090.37 442.28, 1089.98 444.13, 1090.67 446.98 C 1091.36 449.83, 1092.08 452.09, 1094.52 454.46 C 1096.95 456.82, 1099.15 457.63, 1102.87 458.81 C 1106.58 459.99, 1108.78 460.20, 1113.10 460.35 C 1117.42 460.51, 1120.03 460.30, 1124.48 459.56 C 1128.93 458.83, 1131.33 458.20, 1135.34 456.70 C 1139.36 455.20, 1141.40 454.30, 1144.55 452.07 C 1147.71 449.84, 1149.37 448.52, 1151.12 445.55 C 1152.88 442.59, 1153.43 440.58, 1153.31 437.26 C 1153.19 433.94, 1152.65 431.77, 1150.52 428.95 C 1148.40 426.12, 1146.35 424.86, 1142.68 423.14 C 1139.00 421.41, 1136.43 420.90, 1132.15 420.32 C 1127.87 419.75, 1125.34 419.82, 1121.27 420.27 C 1117.19 420.72, 1114.74 421.11, 1111.77 422.55 C 1108.80 423.99, 1107.68 425.67, 1106.43 427.47 C 1105.18 429.27, 1105.34 430.54, 1105.51 431.57 C 1105.67 432.60, 1106.39 432.74, 1107.24 432.62 C 1108.10 432.51, 1108.34 431.78, 1109.80 431.00 C 1111.25 430.22, 1112.06 429.70, 1114.51 428.74 C 1116.95 427.78, 1118.66 426.73, 1122.03 426.22 C 1125.40 425.71, 1127.75 425.68, 1131.35 426.18 C 1134.95 426.68, 1137.22 427.38, 1140.02 428.73 C 1142.83 430.08, 1143.95 431.18, 1145.39 432.94 C 1146.82 434.69, 1147.11 435.61, 1147.19 437.50 C 1147.27 439.39, 1146.99 440.39, 1145.79 442.39 C 1144.60 444.39, 1143.69 445.63, 1141.23 447.49 C 1138.76 449.35, 1136.96 450.34, 1133.45 451.69 C 1129.94 453.04, 1127.66 453.66, 1123.65 454.24 C 1119.65 454.83, 1117.16 454.92, 1113.44 454.60 C 1109.72 454.28, 1107.75 453.76, 1105.06 452.65 C 1102.38 451.55, 1101.37 450.59, 1100.02 449.08 C 1098.66 447.56, 1098.70 446.68, 1098.28 445.09 C 1097.87 443.51, 1098.16 442.65, 1097.96 441.15 C 1097.75 439.66, 1098.02 438.53, 1097.27 437.62 C 1096.51 436.70, 1095.42 436.06, 1094.18 436.57" style="stroke: black; fill: black;"/><path d="M 1196.59,431.67 C 1196.59 430.50, 1196.29 429.52, 1194.81 428.16 C 1193.32 426.79, 1192.09 425.54, 1189.17 424.84 C 1186.25 424.13, 1184.03 424.10, 1180.20 424.63 C 1176.37 425.16, 1174.01 425.89, 1170.04 427.49 C 1166.06 429.08, 1163.75 430.24, 1160.32 432.59 C 1156.90 434.95, 1154.87 436.31, 1152.91 439.26 C 1150.95 442.22, 1150.36 444.19, 1150.52 447.36 C 1150.68 450.54, 1151.31 452.69, 1153.70 455.12 C 1156.10 457.55, 1158.38 458.44, 1162.48 459.52 C 1166.57 460.60, 1169.27 460.61, 1174.16 460.54 C 1179.05 460.47, 1182.04 460.16, 1186.94 459.15 C 1191.85 458.13, 1194.53 457.32, 1198.69 455.47 C 1202.84 453.61, 1204.98 452.50, 1207.71 449.87 C 1210.45 447.24, 1211.66 445.52, 1212.38 442.30 C 1213.09 439.07, 1212.67 436.84, 1211.30 433.74 C 1209.93 430.65, 1208.30 429.10, 1205.52 426.83 C 1202.75 424.57, 1200.71 423.79, 1197.41 422.41 C 1194.12 421.03, 1192.05 420.22, 1189.06 419.93 C 1186.07 419.63, 1184.45 420.27, 1182.47 420.92 C 1180.49 421.57, 1179.75 422.31, 1179.17 423.18 C 1178.60 424.06, 1178.88 424.68, 1179.60 425.29 C 1180.31 425.91, 1181.11 425.80, 1182.75 426.25 C 1184.40 426.71, 1185.43 426.99, 1187.84 427.57 C 1190.25 428.14, 1192.11 428.16, 1194.80 429.11 C 1197.50 430.06, 1199.16 430.81, 1201.31 432.33 C 1203.47 433.84, 1204.46 434.90, 1205.57 436.67 C 1206.68 438.44, 1207.20 439.32, 1206.88 441.17 C 1206.56 443.02, 1206.00 443.98, 1203.95 445.93 C 1201.89 447.88, 1200.20 449.24, 1196.61 450.92 C 1193.02 452.60, 1190.47 453.48, 1185.98 454.35 C 1181.49 455.23, 1178.56 455.39, 1174.17 455.29 C 1169.78 455.20, 1167.28 454.82, 1164.04 453.87 C 1160.80 452.93, 1159.60 451.91, 1157.98 450.57 C 1156.36 449.23, 1155.94 448.71, 1155.95 447.18 C 1155.95 445.66, 1156.44 444.85, 1158.00 442.93 C 1159.55 441.01, 1160.89 439.50, 1163.73 437.57 C 1166.57 435.64, 1168.78 434.44, 1172.19 433.29 C 1175.61 432.14, 1177.77 431.85, 1180.80 431.80 C 1183.84 431.76, 1185.17 432.64, 1187.37 433.06 C 1189.57 433.48, 1190.31 433.70, 1191.80 433.89 C 1193.30 434.08, 1193.87 434.45, 1194.83 434.01 C 1195.78 433.57, 1196.60 432.84, 1196.59 431.67" style="stroke: black; fill: black;"/><path d="M 1234.64,386.09 C 1233.97 387.04, 1233.93 387.86, 1234.01 389.98 C 1234.08 392.11, 1234.51 393.34, 1235.03 396.72 C 1235.55 400.11, 1236.08 402.46, 1236.61 406.89 C 1237.15 411.32, 1237.37 414.09, 1237.71 418.88 C 1238.04 423.67, 1238.09 426.32, 1238.29 430.82 C 1238.48 435.33, 1238.46 437.56, 1238.68 441.42 C 1238.90 445.28, 1238.78 447.08, 1239.39 450.11 C 1240.00 453.13, 1240.73 454.55, 1241.71 456.52 C 1242.68 458.50, 1243.23 459.05, 1244.24 459.97 C 1245.26 460.90, 1245.97 461.02, 1246.78 461.15 C 1247.59 461.27, 1247.98 460.97, 1248.29 460.61 C 1248.60 460.24, 1248.31 459.69, 1248.33 459.31 C 1248.35 458.94, 1248.40 459.15, 1248.39 458.73 C 1248.38 458.31, 1248.51 458.12, 1248.29 457.22 C 1248.07 456.33, 1247.81 455.95, 1247.28 454.24 C 1246.74 452.54, 1246.29 451.38, 1245.62 448.71 C 1244.95 446.05, 1244.44 444.54, 1243.94 440.92 C 1243.45 437.29, 1243.41 435.04, 1243.16 430.58 C 1242.91 426.12, 1242.85 423.44, 1242.69 418.62 C 1242.52 413.79, 1242.47 411.02, 1242.32 406.46 C 1242.18 401.89, 1242.36 399.39, 1241.95 395.80 C 1241.54 392.21, 1241.20 390.63, 1240.28 388.51 C 1239.36 386.40, 1238.50 385.71, 1237.37 385.23 C 1236.24 384.74, 1235.32 385.14, 1234.64 386.09" style="stroke: black; fill: black;"/></svg>